<?xml version="1.0" encoding="utf-8"?>
<!-- Generator: Adobe Illustrator 26.0.1, SVG Export Plug-In . SVG Version: 6.00 Build 0)  -->
<svg version="1.1" id="Layer_1" xmlns="http://www.w3.org/2000/svg" xmlns:xlink="http://www.w3.org/1999/xlink" x="0px" y="0px"
	 viewBox="0 0 800 800" style="enable-background:new 0 0 800 800;" xml:space="preserve">
<style type="text/css">
	.st0{fill:none;stroke:#FFFFFF;stroke-width:66.6667;stroke-linecap:round;stroke-linejoin:round;stroke-miterlimit:133.3333;}
</style>
<path class="st0" d="M240,700c-37.3,0-56,0-70.3-7.3c-12.5-6.4-22.7-16.6-29.1-29.1c-7.3-14.3-7.3-32.9-7.3-70.3V206.7
	c0-37.3,0-56,7.3-70.3c6.4-12.5,16.6-22.7,29.1-29.1C184,100,202.7,100,240,100h320c37.3,0,56,0,70.3,7.3
	c12.5,6.4,22.7,16.6,29.1,29.1c7.3,14.3,7.3,32.9,7.3,70.3v26.7 M266.7,233.3h200 M266.7,500H300 M266.7,366.7H400 M373.2,696.5
	l43.8-8.7c23.7-4.7,35.5-7,46.5-11.3c9.8-3.8,19.1-8.8,27.7-14.8c9.7-6.8,18.2-15.3,35.3-32.3l171.6-171.6c22.9-22.9,22.9-60.1,0-83
	c-22.9-22.9-60.1-22.9-83,0L440.6,549.4c-16,16-24,24-30.4,33c-5.7,8-10.5,16.7-14.4,25.8c-4.3,10.3-6.9,21.2-12.1,43.2L373.2,696.5
	z"/>
</svg>
